<mxfile host="app.diagrams.net" modified="2023-08-04T09:02:21.546Z" agent="Mozilla/5.0 (Macintosh; Intel Mac OS X 10_15_7) AppleWebKit/537.36 (KHTML, like Gecko) Chrome/115.0.0.0 Safari/537.36" version="21.6.6" etag="rCr723DAmcLG_egAzuLg" type="github">
  <diagram name="第 1 页" id="s0vs81A-JT6h5D-vbAxt">
    <mxGraphModel>
      <root>
        <mxCell id="0" />
        <mxCell id="1" parent="0" />
      </root>
    </mxGraphModel>
  </diagram>
</mxfile>
